<svg width="100" height="100" viewBox="0 0 100 100" fill="none" xmlns="http://www.w3.org/2000/svg">
<path d="M41.7616 0C42.727 0 43.6529 0.393467 44.3356 1.09384C45.0182 1.79422 45.4017 2.74413 45.4017 3.73461V16.1833C45.4017 17.1738 45.0182 18.1237 44.3356 18.8241C43.6529 19.5245 42.727 19.9179 41.7616 19.9179C40.7961 19.9179 39.8702 19.5245 39.1876 18.8241C38.5049 18.1237 38.1214 17.1738 38.1214 16.1833V3.73461C38.1214 2.74413 38.5049 1.79422 39.1876 1.09384C39.8702 0.393467 40.7961 0 41.7616 0ZM18.5615 9.80959C19.2441 9.11022 20.1693 8.71739 21.1339 8.71739C22.0986 8.71739 23.0238 9.11022 23.7063 9.80959L32.2 18.5237C32.5577 18.8656 32.8445 19.2779 33.0435 19.736C33.2425 20.1941 33.3494 20.6886 33.3581 21.1901C33.3667 21.6915 33.2768 22.1896 33.0937 22.6547C32.9106 23.1197 32.6381 23.5421 32.2925 23.8967C31.9468 24.2514 31.535 24.5309 31.0818 24.7188C30.6285 24.9066 30.143 24.9989 29.6542 24.99C29.1655 24.9812 28.6835 24.8714 28.2369 24.6673C27.7904 24.4632 27.3885 24.1689 27.0553 23.8019L18.5615 15.0878C17.8798 14.3876 17.4969 13.4384 17.4969 12.4487C17.4969 11.459 17.8798 10.5098 18.5615 9.80959ZM64.9616 9.80959C65.6433 10.5098 66.0262 11.459 66.0262 12.4487C66.0262 13.4384 65.6433 14.3876 64.9616 15.0878L56.4679 23.8019C56.1346 24.1689 55.7327 24.4632 55.2862 24.6673C54.8397 24.8714 54.3577 24.9812 53.8689 24.99C53.3801 24.9989 52.8946 24.9066 52.4414 24.7188C51.9881 24.5309 51.5764 24.2514 51.2307 23.8967C50.885 23.5421 50.6125 23.1197 50.4294 22.6547C50.2464 22.1896 50.1565 21.6915 50.1651 21.1901C50.1737 20.6886 50.2807 20.1941 50.4796 19.736C50.6786 19.2779 50.9655 18.8656 51.3231 18.5237L59.8168 9.80959C60.4994 9.11022 61.4246 8.71739 62.3892 8.71739C63.3539 8.71739 64.2791 9.11022 64.9616 9.80959ZM9 33.6115C9 32.621 9.38352 31.6711 10.0662 30.9708C10.7488 30.2704 11.6747 29.8769 12.6402 29.8769H24.7741C25.7395 29.8769 26.6654 30.2704 27.3481 30.9708C28.0307 31.6711 28.4143 32.621 28.4143 33.6115C28.4143 34.602 28.0307 35.5519 27.3481 36.2523C26.6654 36.9527 25.7395 37.3461 24.7741 37.3461H12.6402C11.6747 37.3461 10.7488 36.9527 10.0662 36.2523C9.38352 35.5519 9 34.602 9 33.6115ZM38.1214 37.2814C38.1214 31.6695 44.5378 28.642 48.6876 32.2969L89.7536 68.4082C94.1704 72.2922 91.6562 79.7166 85.8465 79.9606L67.2088 80.7224C65.2043 80.8021 63.3211 81.7183 61.9815 83.247L49.2943 97.7971C45.3775 102.294 38.1214 99.4453 38.1214 93.4151V37.2814Z" fill="#FF005C"/>
</svg>
